<?xml version="1.0" standalone="no"?>
<!DOCTYPE svg PUBLIC "-//W3C//DTD SVG 20010904//EN"
 "http://www.w3.org/TR/2001/REC-SVG-20010904/DTD/svg10.dtd">
<svg version="1.0" xmlns="http://www.w3.org/2000/svg"
 width="5000.000000pt" height="5000.000000pt" viewBox="0 0 5000.000000 5000.000000"
 preserveAspectRatio="xMidYMid meet">
<metadata>
Created by potrace 1.14, written by Peter Selinger 2001-2017
</metadata>
<g transform="translate(0.000000,5000.000000) scale(0.100000,-0.100000)"
fill="#000000" stroke="none">
<path d="M24568 49995 c-2 -1 -77 -6 -168 -9 -177 -7 -254 -12 -365 -21 -38
-3 -97 -8 -130 -10 -114 -9 -200 -16 -225 -20 -14 -2 -56 -6 -95 -10 -38 -3
-88 -8 -110 -11 -22 -2 -56 -7 -75 -9 -63 -8 -204 -26 -230 -30 -14 -2 -47 -6
-75 -10 -78 -9 -283 -43 -470 -76 -93 -17 -181 -33 -195 -35 -33 -6 -69 -13
-195 -39 -44 -9 -138 -30 -210 -47 -71 -16 -141 -32 -155 -34 -35 -7 -426
-108 -535 -139 -49 -14 -97 -27 -105 -29 -101 -25 -628 -197 -900 -294 -103
-37 -450 -172 -534 -208 -34 -15 -70 -30 -81 -34 -11 -5 -40 -17 -65 -28 -25
-11 -103 -46 -175 -78 -438 -192 -959 -461 -1395 -719 -127 -75 -364 -221
-399 -245 -14 -10 -87 -57 -161 -106 -264 -172 -811 -565 -898 -645 -9 -8 -33
-26 -52 -39 -19 -14 -39 -29 -45 -35 -5 -7 -32 -29 -60 -51 -58 -45 -214 -173
-233 -191 -7 -7 -34 -29 -60 -50 -26 -21 -54 -45 -62 -54 -8 -9 -49 -45 -90
-80 -68 -58 -93 -80 -185 -164 -199 -180 -518 -495 -726 -716 -177 -188 -194
-206 -242 -261 -23 -28 -51 -60 -62 -72 -66 -74 -146 -166 -171 -196 -16 -19
-34 -40 -39 -46 -6 -6 -27 -31 -46 -54 -18 -23 -59 -72 -89 -109 -134 -162
-358 -456 -556 -731 -170 -235 -492 -734 -624 -965 -10 -16 -60 -104 -112
-195 -210 -367 -444 -832 -608 -1210 -18 -41 -40 -93 -50 -115 -175 -390 -421
-1074 -567 -1575 -88 -303 -194 -723 -249 -990 -16 -81 -50 -250 -79 -405 -4
-22 -33 -193 -41 -240 -2 -16 -9 -55 -14 -85 -5 -30 -11 -75 -14 -100 -4 -25
-8 -54 -10 -65 -5 -28 -15 -101 -21 -155 -3 -25 -8 -63 -11 -85 -5 -42 -12
-95 -19 -155 -2 -19 -7 -64 -10 -100 -4 -36 -8 -81 -10 -100 -4 -34 -13 -129
-20 -220 -7 -73 -17 -222 -20 -270 -16 -313 -20 -448 -20 -825 1 -375 6 -620
20 -825 8 -122 16 -239 20 -270 1 -19 6 -73 10 -120 4 -47 8 -98 10 -115 2
-16 7 -59 10 -95 3 -36 8 -76 10 -90 2 -14 7 -52 10 -85 3 -33 8 -75 11 -92 2
-18 6 -48 8 -65 3 -18 8 -55 11 -83 3 -27 18 -124 32 -215 14 -91 26 -174 28
-185 1 -11 15 -87 29 -170 31 -170 48 -254 100 -495 14 -63 27 -126 30 -140 2
-14 11 -52 20 -85 8 -33 24 -98 36 -145 100 -415 317 -1121 445 -1450 19 -47
49 -128 69 -180 19 -53 42 -112 51 -133 8 -20 15 -39 16 -42 0 -4 11 -31 58
-140 5 -11 16 -36 24 -55 9 -19 25 -59 37 -89 12 -30 39 -92 61 -138 21 -46
39 -86 39 -88 0 -4 35 -80 120 -260 176 -375 411 -810 644 -1193 61 -101 116
-191 121 -200 30 -49 268 -410 342 -517 112 -163 429 -593 453 -615 3 -3 21
-25 40 -50 47 -62 42 -55 118 -149 139 -173 388 -461 581 -671 195 -212 694
-705 872 -862 15 -13 55 -48 89 -78 35 -30 84 -73 109 -96 229 -205 691 -569
991 -781 63 -45 120 -86 125 -91 14 -12 318 -215 440 -294 409 -265 877 -529
1340 -757 190 -94 288 -140 490 -230 22 -10 60 -28 85 -39 182 -81 557 -231
785 -314 169 -61 507 -177 535 -183 3 -1 46 -14 95 -29 105 -33 266 -81 345
-102 126 -34 160 -46 160 -55 0 -6 -9 -29 -19 -52 -67 -147 -301 -669 -301
-672 0 -1 -22 -51 -50 -109 -27 -58 -50 -108 -50 -111 0 -2 -18 -43 -41 -92
-22 -48 -46 -101 -54 -118 -20 -46 -184 -413 -209 -470 -13 -27 -51 -113 -86
-190 -107 -236 -116 -257 -155 -345 -44 -100 -54 -122 -175 -390 -51 -113
-101 -225 -112 -250 -11 -25 -32 -70 -45 -100 -14 -30 -49 -109 -78 -175 -29
-66 -66 -149 -83 -185 -17 -36 -59 -130 -95 -210 -35 -80 -75 -167 -87 -195
-13 -27 -33 -72 -45 -100 -13 -27 -52 -115 -88 -195 -35 -80 -74 -165 -85
-190 -11 -25 -38 -85 -60 -135 -22 -49 -56 -125 -76 -168 -20 -42 -36 -79 -36
-81 0 -3 -17 -42 -39 -88 -21 -46 -55 -121 -76 -168 -20 -47 -53 -118 -71
-158 -19 -41 -34 -75 -34 -77 0 -2 -16 -39 -36 -82 -20 -43 -53 -116 -74 -163
-40 -91 -80 -180 -110 -245 -10 -22 -69 -152 -130 -290 -62 -137 -120 -268
-130 -290 -10 -22 -156 -348 -325 -725 -169 -377 -318 -710 -332 -740 -14 -30
-43 -95 -65 -145 -22 -49 -48 -108 -58 -130 -50 -110 -255 -565 -271 -602 -11
-24 -29 -64 -40 -90 -12 -27 -33 -73 -46 -103 -14 -30 -34 -75 -45 -100 -11
-25 -26 -58 -33 -75 -8 -16 -34 -74 -59 -129 -25 -54 -46 -100 -46 -103 0 -2
-18 -42 -40 -89 -22 -47 -40 -87 -40 -89 0 -3 -16 -40 -36 -82 -20 -43 -42
-91 -49 -108 -27 -60 -67 -151 -90 -200 -12 -27 -60 -133 -105 -235 -45 -102
-96 -214 -112 -249 -16 -36 -65 -144 -108 -240 -43 -97 -92 -207 -110 -246
-17 -38 -38 -83 -45 -100 -62 -140 -153 -343 -181 -403 -19 -41 -34 -75 -34
-77 0 -2 -13 -32 -29 -67 -55 -121 -84 -183 -121 -268 -21 -47 -60 -134 -88
-195 -62 -137 -62 -138 -217 -485 -71 -157 -139 -310 -153 -340 -14 -30 -26
-57 -27 -60 -1 -3 -8 -21 -17 -40 -8 -19 -34 -75 -56 -125 -22 -49 -56 -125
-76 -168 -20 -42 -36 -79 -36 -81 0 -2 -15 -37 -34 -78 -19 -40 -114 -251
-211 -468 -199 -446 -294 -656 -336 -748 -16 -35 -29 -65 -29 -67 0 -2 -18
-41 -39 -87 -21 -45 -86 -189 -144 -318 -104 -234 -133 -298 -188 -418 -16
-35 -29 -65 -29 -67 0 -2 -15 -36 -34 -77 -19 -40 -93 -206 -166 -368 -72
-162 -145 -323 -161 -358 -16 -34 -29 -64 -29 -66 0 -2 -16 -39 -36 -83 -58
-126 -76 -166 -94 -209 -10 -23 -30 -68 -45 -100 -15 -32 -33 -72 -40 -89 -8
-16 -29 -64 -48 -105 -38 -83 -69 -152 -72 -160 -1 -3 -8 -21 -17 -40 -9 -19
-45 -100 -81 -180 -35 -80 -76 -170 -90 -200 -14 -30 -44 -98 -67 -150 -52
-119 -60 -137 -106 -235 -20 -44 -51 -114 -69 -155 -18 -41 -44 -100 -58 -130
-14 -30 -55 -120 -90 -200 -36 -80 -86 -192 -112 -250 -26 -58 -86 -190 -132
-295 -47 -104 -97 -215 -111 -245 -14 -30 -26 -57 -27 -60 -3 -11 -24 -58 -55
-125 -18 -38 -78 -173 -135 -300 -57 -126 -114 -255 -128 -285 -60 -133 -164
-366 -285 -635 -71 -160 -139 -311 -150 -335 -49 -108 -295 -657 -302 -676 -5
-11 -27 -60 -49 -108 -23 -49 -41 -89 -41 -91 0 -2 -17 -41 -39 -87 -21 -45
-53 -117 -71 -158 -18 -41 -46 -104 -62 -140 -17 -36 -36 -78 -43 -95 -7 -16
-31 -68 -53 -115 -140 -303 -176 -483 -136 -677 27 -132 131 -275 248 -342 58
-34 146 -64 228 -80 33 -6 416 -10 1033 -10 1056 1 1047 1 1225 55 96 29 261
98 302 126 14 10 29 18 32 18 14 0 186 117 256 174 162 131 322 316 418 482
23 39 71 138 108 220 36 82 73 165 82 184 9 19 16 37 17 40 1 3 16 36 33 74
18 38 32 70 32 71 0 2 17 41 39 87 21 45 87 191 146 323 58 132 124 278 146
323 21 46 39 86 39 90 0 3 14 35 31 71 38 81 28 60 194 431 75 168 156 348
180 400 23 52 52 115 63 140 11 25 78 176 150 335 71 160 142 317 157 350 14
33 35 78 45 100 9 22 68 153 130 290 61 138 120 268 130 290 35 76 73 160 74
165 1 5 129 291 229 510 11 25 21 47 22 50 1 3 11 25 22 50 11 25 40 88 63
140 23 52 50 111 58 130 9 19 16 37 17 40 1 3 16 37 34 75 18 39 50 108 71
155 40 90 65 147 110 245 15 33 91 203 169 378 78 175 146 326 151 335 12 23
70 152 70 157 0 3 15 37 34 77 18 40 44 96 56 123 26 60 38 86 84 188 l35 77
73 1 c521 4 5041 -1 5046 -6 4 -3 7 -1533 8 -3398 1 -3108 2 -3398 17 -3459
85 -347 327 -595 667 -683 l95 -24 940 2 940 2 87 27 c344 108 571 358 640
708 11 52 13 716 13 3447 l0 3383 30 1 c17 0 1168 0 2558 1 1695 0 2532 -3
2539 -10 5 -5 29 -54 53 -109 23 -54 54 -125 70 -158 15 -33 86 -190 157 -350
71 -159 138 -308 148 -330 10 -22 77 -173 150 -335 72 -162 143 -320 157 -350
14 -30 33 -73 44 -95 10 -22 77 -173 149 -335 73 -162 145 -323 161 -358 16
-34 29 -64 29 -66 0 -3 18 -44 41 -93 23 -48 68 -149 101 -223 60 -135 121
-271 173 -385 15 -33 72 -161 127 -285 55 -124 111 -247 123 -275 69 -150 99
-215 120 -265 13 -30 42 -95 64 -143 23 -49 41 -90 41 -92 0 -2 15 -36 34 -77
18 -40 73 -161 121 -268 48 -107 95 -213 105 -236 40 -86 261 -580 467 -1039
118 -264 226 -505 240 -535 14 -30 40 -89 59 -130 18 -41 46 -101 63 -132 166
-309 458 -584 800 -752 86 -42 282 -110 351 -122 19 -3 58 -9 85 -14 68 -12
1975 -11 2045 0 263 44 437 201 485 439 25 119 16 244 -26 386 -19 64 -138
342 -249 580 -10 22 -67 148 -125 280 -59 132 -120 268 -136 303 -16 34 -29
64 -29 66 0 3 -22 52 -50 111 -27 59 -50 108 -50 110 0 2 -15 36 -33 77 -30
65 -125 276 -180 398 -19 44 -54 121 -94 210 -12 25 -49 108 -83 185 -34 77
-77 173 -96 213 -19 41 -34 75 -34 77 0 2 -18 42 -40 89 -22 47 -40 87 -40 90
0 2 -18 43 -41 91 -22 49 -67 147 -99 219 -32 72 -69 156 -83 186 -14 30 -34
75 -45 100 -17 39 -303 675 -352 785 -10 22 -27 60 -38 85 -11 25 -72 162
-136 304 -64 143 -126 280 -138 305 -11 25 -31 71 -45 101 -14 30 -52 116 -85
190 -33 74 -68 151 -76 170 -9 19 -16 37 -17 40 -1 3 -13 30 -27 60 -14 30
-55 123 -92 205 -37 83 -81 178 -97 213 -16 35 -29 65 -29 67 0 3 -15 37 -34
77 -19 40 -55 120 -81 178 -26 58 -58 130 -72 160 -14 30 -32 71 -40 90 -9 19
-31 68 -49 107 -19 40 -34 75 -34 77 0 2 -15 37 -34 78 -19 40 -73 161 -121
268 -93 209 -113 255 -152 340 -14 30 -54 120 -90 200 -100 224 -104 232 -130
290 -14 30 -40 89 -58 130 -18 41 -46 104 -63 140 -16 36 -78 173 -137 305
-59 132 -138 308 -175 390 -62 137 -179 397 -347 775 -36 80 -73 163 -83 185
-206 458 -265 589 -332 740 -84 188 -102 229 -162 358 -20 43 -36 80 -36 83 0
2 -15 36 -34 76 -19 40 -62 136 -96 213 -34 77 -81 183 -105 235 -74 163 -96
211 -155 345 -32 72 -69 155 -83 185 -14 30 -64 143 -112 250 -48 107 -98 220
-112 250 -14 30 -43 96 -65 145 -22 50 -49 110 -60 135 -59 130 -218 482 -268
595 -32 72 -69 155 -83 185 -13 30 -84 188 -157 350 -73 162 -140 313 -150
335 -10 22 -107 238 -215 480 -108 242 -212 473 -231 513 -19 41 -34 75 -34
78 0 2 -20 47 -45 100 -25 53 -45 97 -45 99 0 2 -15 36 -34 77 -18 40 -53 116
-76 168 -23 52 -52 118 -65 145 -13 28 -92 203 -175 390 -84 187 -162 363
-175 390 -13 28 -51 113 -85 190 -34 77 -73 165 -87 195 -14 30 -42 93 -63
140 -21 47 -49 110 -63 140 -14 30 -84 186 -155 345 -71 160 -140 313 -152
340 -45 100 -47 104 -312 695 -38 85 -97 216 -130 290 -33 74 -72 160 -85 190
-14 30 -102 226 -195 435 -93 209 -181 404 -195 433 -24 54 -98 218 -328 732
-70 157 -179 400 -242 540 -63 140 -133 296 -155 345 -22 50 -56 123 -74 163
-19 41 -34 76 -34 78 0 2 -16 39 -36 81 -42 93 -48 105 -114 253 -29 63 -63
139 -77 168 -13 30 -23 55 -21 57 2 1 55 17 118 35 1381 388 2613 946 3820
1730 178 116 522 356 675 472 55 42 53 41 110 82 22 17 42 32 45 35 3 4 43 35
90 71 47 35 87 67 90 70 3 3 50 41 105 85 55 44 111 89 125 101 53 45 325 279
341 294 9 8 54 49 100 90 160 144 225 206 474 455 219 218 386 393 506 529 19
21 41 46 50 55 8 9 44 50 80 91 35 41 66 77 70 80 3 3 50 59 105 125 412 494
786 1008 1121 1545 124 199 293 487 293 499 0 6 3 11 8 11 4 0 12 10 18 23 6
12 26 51 46 87 116 211 185 344 303 585 73 149 142 293 155 320 43 95 63 140
65 145 2 6 3 9 90 210 73 171 153 371 221 555 25 66 47 127 51 135 96 245 333
1013 388 1261 2 8 10 39 19 67 8 29 15 54 15 57 1 8 9 44 40 175 16 69 32 139
35 155 3 17 21 104 40 195 19 91 37 181 40 200 3 19 10 60 16 90 6 30 13 71
16 90 3 19 7 42 9 50 3 8 7 33 10 55 6 42 13 87 19 120 2 11 7 42 10 68 4 27
9 59 12 70 2 12 6 45 9 72 3 28 8 61 10 75 7 40 33 249 40 317 3 34 8 70 10
81 2 11 6 58 10 104 4 45 8 101 11 123 2 22 6 69 9 105 2 36 7 103 11 150 22
277 29 509 28 955 0 389 -6 652 -19 795 -2 25 -6 95 -10 155 -3 61 -8 121 -10
135 -2 14 -7 63 -10 110 -3 47 -8 101 -10 120 -2 19 -7 60 -10 90 -3 30 -10
89 -15 130 -9 76 -16 132 -25 218 -3 26 -8 56 -10 68 -3 11 -7 43 -10 70 -3
27 -8 60 -10 74 -3 14 -7 39 -9 55 -21 141 -73 440 -93 535 -8 41 -17 89 -20
105 -18 118 -142 643 -213 901 -98 357 -252 840 -360 1124 -18 47 -45 120 -60
162 -16 42 -35 91 -43 110 -8 18 -27 65 -42 103 -15 39 -33 84 -40 100 -7 17
-30 71 -51 120 -32 78 -110 252 -209 470 -46 103 -231 475 -288 580 -105 195
-130 241 -194 355 -334 591 -798 1279 -1187 1760 -322 398 -493 594 -811 929
-179 189 -590 590 -690 674 -16 13 -50 43 -74 66 -24 23 -90 81 -145 129 -56
47 -108 93 -117 102 -9 8 -31 26 -49 40 -18 14 -40 32 -49 40 -31 31 -179 149
-366 294 -104 80 -197 152 -205 159 -8 8 -37 29 -65 48 -27 19 -52 37 -55 40
-10 11 -320 228 -465 325 -267 179 -476 308 -760 470 -110 63 -207 119 -215
124 -8 5 -40 22 -70 39 -30 16 -93 50 -140 75 -144 78 -597 300 -755 371 -82
36 -174 77 -203 91 -29 13 -55 24 -57 24 -2 0 -28 11 -57 24 -91 41 -526 212
-693 271 -406 145 -807 269 -1200 370 -55 14 -116 30 -135 35 -52 15 -280 68
-320 75 -19 3 -51 10 -70 15 -19 5 -105 23 -190 40 -85 17 -162 33 -170 35 -8
1 -49 8 -90 15 -41 6 -91 16 -110 20 -19 5 -53 11 -75 14 -39 4 -149 22 -190
30 -11 2 -45 7 -75 11 -30 3 -66 8 -80 10 -14 2 -45 7 -70 10 -25 3 -52 8 -60
10 -8 2 -49 7 -90 10 -41 4 -77 8 -80 10 -3 1 -43 6 -90 10 -47 4 -87 8 -90
10 -3 2 -43 6 -90 10 -47 3 -101 8 -120 10 -74 8 -256 21 -565 41 -80 5 -1082
14 -1087 9z m877 -3409 c39 -3 120 -8 180 -11 61 -4 124 -8 140 -10 17 -1 66
-6 110 -10 44 -3 87 -8 95 -10 8 -2 51 -7 95 -11 44 -3 82 -8 85 -9 3 -2 34
-6 70 -10 67 -7 106 -12 150 -20 14 -2 48 -7 75 -10 28 -3 61 -7 75 -10 33 -5
179 -27 205 -30 103 -15 349 -65 540 -110 339 -81 643 -161 740 -196 33 -11
74 -25 90 -29 17 -4 116 -38 220 -75 105 -37 204 -71 220 -76 17 -5 39 -13 50
-18 11 -5 72 -28 135 -51 110 -41 136 -51 242 -99 26 -11 50 -21 52 -21 4 0
119 -53 294 -136 51 -24 95 -44 97 -44 7 0 375 -183 430 -215 186 -104 332
-189 346 -201 8 -8 19 -14 22 -14 31 0 725 -452 767 -500 3 -3 46 -34 95 -70
50 -35 92 -67 95 -70 3 -3 21 -17 40 -30 168 -116 525 -421 860 -735 146 -137
350 -349 511 -530 24 -27 49 -55 54 -61 6 -6 39 -43 75 -84 36 -40 70 -78 75
-84 190 -213 706 -909 809 -1092 9 -16 24 -41 34 -56 27 -42 165 -271 178
-293 6 -11 44 -78 86 -150 130 -224 241 -440 346 -672 27 -59 65 -142 85 -183
60 -129 113 -251 157 -365 23 -60 46 -119 51 -130 29 -63 250 -722 287 -855
31 -108 60 -221 65 -250 3 -14 17 -70 30 -125 14 -55 28 -111 31 -125 3 -14
23 -105 45 -202 51 -223 95 -485 135 -808 3 -25 8 -55 10 -67 3 -12 7 -48 11
-80 3 -32 8 -69 10 -83 7 -45 31 -315 40 -455 29 -436 26 -942 -9 -1360 -12
-141 -16 -189 -21 -225 -2 -19 -7 -60 -10 -90 -4 -30 -8 -67 -10 -81 -3 -14
-7 -43 -9 -65 -27 -214 -53 -395 -81 -564 -9 -52 -18 -104 -19 -115 -8 -42
-37 -182 -46 -215 -5 -19 -11 -46 -14 -60 -12 -68 -148 -613 -173 -695 -19
-64 -151 -458 -196 -590 -48 -136 -135 -371 -157 -420 -10 -22 -33 -74 -51
-115 -36 -85 -60 -138 -200 -435 -95 -203 -151 -316 -198 -400 -13 -22 -37
-65 -54 -95 -25 -47 -304 -516 -340 -574 -23 -38 -207 -312 -239 -357 -51 -72
-329 -447 -366 -493 -60 -76 -251 -304 -282 -337 -8 -8 -35 -38 -59 -65 -331
-372 -525 -567 -826 -834 -33 -30 -62 -56 -65 -59 -3 -4 -41 -38 -85 -76 -44
-39 -82 -72 -85 -75 -15 -15 -187 -155 -262 -214 -276 -214 -706 -519 -869
-616 -13 -7 -109 -65 -212 -127 -104 -62 -191 -113 -193 -113 -2 0 -28 -16
-58 -35 -30 -19 -57 -35 -60 -35 -2 0 -42 -22 -88 -48 -72 -41 -451 -232 -462
-232 -2 0 -53 -23 -112 -51 -255 -119 -315 -145 -463 -203 -113 -45 -265 -101
-331 -124 -8 -2 -78 -27 -155 -54 -237 -83 -490 -164 -577 -184 -10 -2 -26 -6
-35 -9 -108 -29 -634 -155 -718 -171 -11 -2 -54 -11 -95 -19 -85 -17 -353 -59
-480 -74 -100 -13 -130 -17 -190 -25 -25 -4 -63 -9 -85 -11 -22 -3 -53 -7 -70
-10 -16 -2 -61 -7 -100 -10 -38 -4 -83 -9 -100 -10 -16 -2 -70 -7 -120 -10
-49 -4 -106 -9 -125 -10 -288 -25 -953 -25 -1255 0 -142 12 -215 18 -245 20
-43 4 -145 15 -185 20 -16 2 -56 7 -88 10 -32 4 -67 8 -79 10 -11 3 -46 7 -77
11 -31 3 -65 8 -76 10 -11 2 -40 6 -65 9 -25 3 -58 8 -75 10 -16 3 -48 7 -70
10 -118 17 -348 58 -428 76 -51 11 -103 23 -117 25 -14 3 -72 17 -130 31 -58
14 -112 26 -120 28 -8 2 -53 13 -100 24 -47 12 -95 23 -108 26 -153 29 -886
270 -1187 390 -206 82 -559 243 -845 385 -180 89 -203 102 -405 219 -44 25
-88 51 -98 56 -244 138 -606 373 -834 540 -45 34 -282 211 -314 235 -138 105
-340 275 -499 420 -47 43 -107 97 -135 121 -212 187 -472 453 -741 759 -21 24
-46 51 -54 60 -61 66 -204 236 -246 291 -169 226 -298 397 -308 410 -67 83
-356 509 -356 524 0 2 -13 23 -29 47 -16 24 -38 59 -49 78 -11 19 -70 120
-131 223 -61 103 -111 189 -111 192 0 2 -14 28 -31 57 -36 61 -158 302 -219
433 -104 222 -124 264 -176 383 -30 70 -63 145 -73 167 -10 22 -37 92 -60 155
-24 63 -46 124 -51 135 -25 57 -214 619 -249 740 -28 98 -126 491 -166 665 -6
25 -36 164 -41 185 -23 114 -32 162 -50 280 -8 55 -19 125 -24 155 -5 30 -12
80 -15 110 -3 30 -10 80 -15 110 -5 30 -14 98 -20 150 -6 52 -13 109 -15 126
-2 16 -7 59 -10 95 -3 35 -8 78 -10 94 -2 17 -7 71 -10 120 -4 50 -8 106 -10
125 -25 273 -25 981 0 1250 2 19 6 73 10 120 3 47 7 99 9 115 2 17 7 64 10
105 4 41 9 86 11 100 2 14 6 48 10 75 3 28 8 67 11 87 8 61 12 87 28 212 9 66
18 131 21 145 2 14 7 46 10 71 29 205 72 410 187 880 58 241 140 514 219 735
16 44 54 152 85 240 91 259 174 462 312 755 22 47 50 108 62 135 29 65 181
368 210 420 13 22 38 68 57 103 18 35 45 82 60 105 15 23 31 51 37 62 10 18
211 353 239 399 23 37 186 281 216 323 30 42 269 370 283 388 137 176 195 248
268 335 110 130 111 131 330 374 161 178 344 363 495 501 55 50 109 99 120
110 12 11 41 38 66 59 24 21 67 60 94 85 82 76 215 189 335 285 25 20 51 41
57 46 116 95 712 520 838 597 124 75 541 321 611 361 127 71 593 302 609 302
2 0 55 25 120 55 64 30 118 55 121 55 3 0 29 11 57 24 92 42 129 57 237 97 58
22 114 44 125 49 58 25 556 194 710 240 227 68 706 185 987 240 95 19 307 53
403 65 28 4 61 8 75 10 14 2 61 9 105 15 44 6 96 13 115 16 19 3 55 7 80 10
25 2 59 6 75 9 64 8 206 22 320 31 44 3 100 8 125 10 25 1 117 6 205 10 88 3
161 7 163 9 5 4 615 -3 687 -9z m-2140 -31603 l0 -4008 -1798 0 c-988 0 -1797
2 -1797 6 0 3 26 64 59 135 82 181 86 190 210 469 62 138 118 264 126 280 22
49 58 130 60 135 3 9 36 83 72 160 19 41 42 91 50 110 9 19 24 53 34 75 9 22
59 132 109 245 86 191 232 516 286 638 13 28 36 78 51 110 14 31 28 62 29 67
1 6 19 46 40 90 21 44 38 82 39 85 0 3 10 25 22 50 11 25 47 106 80 180 34 74
77 170 97 213 20 43 36 80 36 82 0 2 20 48 45 101 25 53 45 97 45 99 0 2 67
152 175 390 7 17 54 122 105 235 50 113 100 225 112 250 11 24 79 175 150 335
72 159 141 315 155 345 14 30 33 73 43 95 10 22 29 65 43 95 13 30 62 138 107
240 46 102 105 234 132 293 27 60 75 168 107 240 32 73 72 161 89 197 16 36
39 88 51 115 35 79 55 123 171 380 40 88 118 264 175 390 185 413 277 619 296
660 61 135 172 384 180 403 5 12 10 22 11 22 2 0 3 -1803 3 -4007z m3423 3965
c11 -24 68 -151 127 -283 59 -132 118 -265 132 -295 14 -30 51 -113 83 -185
32 -71 71 -159 88 -195 16 -36 75 -168 132 -295 56 -126 117 -263 136 -303 19
-40 34 -74 34 -76 0 -3 16 -40 36 -83 20 -43 62 -136 94 -208 32 -71 69 -155
83 -185 14 -30 66 -147 117 -260 51 -113 103 -230 117 -260 35 -76 226 -505
275 -615 22 -49 51 -115 65 -145 14 -30 54 -120 90 -200 36 -80 76 -170 90
-200 14 -30 41 -91 60 -135 19 -44 48 -107 63 -140 15 -33 35 -76 43 -95 9
-19 38 -84 65 -145 27 -60 106 -236 175 -390 231 -517 345 -770 377 -840 17
-38 39 -86 47 -105 19 -43 39 -89 92 -203 23 -49 41 -91 41 -93 0 -3 18 -43
40 -90 22 -47 40 -88 40 -90 0 -2 20 -47 45 -100 25 -53 45 -98 45 -100 0 -2
16 -39 36 -81 20 -43 89 -197 154 -343 108 -242 143 -319 202 -450 11 -25 49
-108 83 -185 66 -147 103 -230 137 -305 44 -97 128 -288 128 -292 0 -6 -3590
-4 -3591 2 -2 9 -4 8010 -2 8010 1 0 11 -19 21 -42z"/>
<path d="M24818 43195 c-2 -1 -77 -5 -168 -9 -91 -3 -176 -8 -190 -11 -14 -2
-57 -6 -95 -9 -39 -3 -86 -8 -105 -10 -19 -3 -78 -10 -130 -17 -52 -6 -104
-13 -115 -15 -11 -2 -40 -7 -65 -10 -25 -3 -52 -7 -60 -9 -8 -2 -35 -7 -60
-10 -24 -4 -47 -8 -50 -10 -3 -2 -26 -6 -50 -10 -25 -4 -94 -18 -155 -31 -60
-14 -122 -27 -137 -30 -71 -13 -411 -110 -563 -160 -169 -56 -485 -176 -600
-229 -217 -99 -358 -168 -465 -226 -41 -22 -101 -55 -135 -73 -58 -32 -182
-105 -255 -151 -48 -30 -333 -218 -345 -227 -5 -5 -77 -59 -160 -120 -82 -61
-152 -114 -155 -117 -3 -3 -36 -32 -75 -63 -38 -31 -79 -65 -90 -75 -11 -10
-38 -33 -60 -52 -220 -186 -544 -517 -750 -766 -28 -33 -52 -62 -55 -65 -3 -3
-33 -41 -68 -85 -34 -44 -65 -84 -70 -90 -43 -53 -196 -270 -278 -395 -207
-315 -433 -738 -570 -1068 -20 -48 -40 -96 -45 -107 -92 -216 -205 -562 -290
-885 -13 -48 -50 -210 -55 -240 -3 -14 -7 -32 -9 -40 -2 -8 -7 -31 -10 -50 -3
-19 -12 -66 -20 -105 -8 -38 -17 -88 -20 -110 -3 -23 -7 -52 -10 -65 -6 -29
-26 -174 -30 -216 -2 -18 -6 -54 -10 -80 -3 -27 -8 -76 -11 -109 -2 -33 -6
-78 -9 -100 -25 -225 -25 -911 0 -1100 2 -16 6 -61 10 -100 9 -112 30 -283 45
-380 23 -142 84 -457 101 -519 6 -22 13 -50 15 -61 13 -71 112 -410 167 -570
86 -251 97 -280 183 -483 402 -942 994 -1762 1770 -2448 38 -34 85 -75 104
-90 19 -16 37 -31 40 -34 3 -3 41 -34 85 -69 44 -34 89 -70 100 -80 11 -9 36
-27 55 -41 19 -13 37 -27 40 -30 10 -11 178 -129 295 -207 601 -400 1270 -706
1968 -897 215 -59 530 -129 682 -151 22 -3 67 -10 100 -16 33 -6 76 -12 95
-15 19 -2 54 -6 78 -9 63 -8 110 -13 182 -20 36 -3 81 -8 100 -10 220 -25 928
-26 1125 -1 17 3 64 7 105 11 41 3 88 8 105 10 16 2 53 7 80 10 28 3 61 7 75
10 14 2 43 7 65 10 99 14 236 37 305 51 41 9 84 17 95 20 308 61 712 179 1030
301 645 247 1220 572 1780 1005 287 223 655 571 910 863 33 38 70 80 82 94 13
14 26 31 31 36 4 6 44 55 88 110 44 55 100 127 125 160 24 33 47 64 52 70 171
224 404 603 572 930 281 548 514 1225 619 1798 20 112 32 181 41 242 26 175
40 278 50 390 3 33 7 78 10 100 25 230 25 842 0 1090 -3 22 -7 67 -9 100 -3
33 -8 78 -10 100 -6 45 -24 180 -31 240 -5 40 -31 189 -40 235 -3 14 -7 40
-10 58 -2 18 -6 36 -9 40 -2 4 -7 24 -10 44 -21 132 -142 595 -166 637 -8 14
-9 14 -10 1 0 -35 -165 -334 -261 -476 -54 -79 -163 -225 -224 -300 -42 -51
-342 -354 -385 -389 -14 -11 -47 -38 -75 -60 -27 -22 -52 -42 -55 -45 -3 -3
-41 -31 -85 -63 -44 -31 -84 -60 -90 -64 -8 -7 -153 -97 -245 -153 -53 -32
-312 -155 -400 -190 -157 -63 -372 -130 -490 -155 -8 -2 -44 -10 -80 -18 -36
-8 -87 -18 -115 -23 -27 -4 -57 -9 -65 -10 -8 -2 -40 -6 -70 -10 -30 -3 -63
-8 -74 -10 -123 -23 -555 -22 -751 1 -58 7 -130 17 -150 21 -11 2 -47 9 -80
15 -75 14 -94 17 -125 24 -14 4 -36 8 -50 11 -94 19 -406 119 -500 160 -19 8
-44 19 -55 24 -201 86 -469 237 -648 366 -248 180 -541 462 -697 674 -14 18
-35 46 -47 61 -13 15 -23 31 -23 37 0 6 -4 12 -8 14 -5 2 -28 32 -52 68 -256
377 -441 824 -524 1270 -9 47 -18 96 -21 109 -4 22 -14 98 -21 166 -23 219
-22 548 1 725 3 19 7 58 10 85 3 28 8 57 10 65 2 8 7 33 10 55 6 44 10 66 19
105 3 14 8 36 10 50 15 76 78 304 103 370 3 8 7 20 9 25 8 28 55 149 84 215
98 226 215 433 357 633 113 159 207 270 358 422 135 135 184 181 262 242 20
15 51 40 69 55 78 68 383 260 526 333 l157 79 -77 24 c-74 22 -361 99 -406
108 -11 3 -52 11 -91 19 -38 8 -81 17 -95 20 -14 3 -38 7 -55 10 -16 3 -52 10
-80 15 -27 5 -67 12 -89 16 -21 3 -48 8 -60 10 -11 2 -59 9 -106 14 -47 6 -96
13 -110 15 -14 2 -50 7 -80 10 -30 3 -75 7 -100 10 -25 2 -76 7 -115 10 -38 3
-101 8 -140 11 -66 6 -582 13 -587 9z"/>
</g>
</svg>
