<?xml version="1.0" standalone="no"?>
<!DOCTYPE svg PUBLIC "-//W3C//DTD SVG 20010904//EN"
 "http://www.w3.org/TR/2001/REC-SVG-20010904/DTD/svg10.dtd">
<svg version="1.0" xmlns="http://www.w3.org/2000/svg"
 width="700.000000pt" height="700.000000pt" viewBox="0 0 700.000000 700.000000"
 preserveAspectRatio="xMidYMid meet">
<metadata>
Created by potrace 1.14, written by Peter Selinger 2001-2017
</metadata>
<g transform="translate(0.000000,700.000000) scale(0.100000,-0.100000)"
fill="#000000" stroke="none">
<path d="M3230 6980 c-63 -10 -135 -23 -160 -30 -25 -7 -55 -14 -67 -16 -51
-9 -236 -80 -332 -126 -381 -183 -682 -482 -876 -866 -30 -61 -55 -117 -55
-124 0 -8 -5 -19 -10 -24 -14 -14 -88 -263 -101 -342 -63 -374 -35 -691 88
-1022 199 -534 643 -963 1178 -1139 l112 -37 -23 -49 c-13 -28 -64 -142 -114
-255 -50 -113 -109 -243 -130 -290 -21 -47 -89 -197 -150 -335 -109 -242 -132
-294 -180 -400 -12 -27 -40 -90 -62 -140 -43 -97 -56 -126 -128 -285 -38 -84
-264 -588 -325 -725 -7 -16 -26 -59 -43 -95 -281 -617 -279 -611 -226 -658 24
-21 33 -22 182 -22 131 0 164 3 198 19 69 31 106 78 164 207 60 134 79 176
143 319 25 55 60 134 79 175 19 41 61 135 93 207 l60 133 360 0 360 0 -2 -482
c-2 -531 -3 -520 60 -558 28 -17 51 -20 176 -20 128 0 147 2 178 21 63 39 61
26 60 557 l-2 482 360 0 360 0 17 -38 c28 -60 70 -154 161 -357 203 -454 246
-547 271 -579 14 -19 50 -46 79 -61 52 -25 60 -26 215 -25 154 2 161 3 182 25
30 32 28 77 -10 159 -17 39 -37 84 -44 100 -8 17 -25 56 -39 86 -14 30 -84
188 -157 350 -72 162 -169 378 -215 480 -46 102 -123 275 -173 385 -49 110
-149 333 -222 495 -73 162 -140 313 -150 335 -10 22 -41 92 -69 155 -29 63
-63 140 -77 170 -14 30 -71 159 -128 285 l-103 230 41 13 c165 55 326 124 421
181 59 36 149 95 155 101 3 3 30 24 60 46 191 142 385 373 509 606 50 92 134
288 125 288 -3 0 0 8 5 18 6 11 19 55 31 99 100 387 81 784 -55 1148 -52 139
-158 346 -212 415 -7 8 -34 44 -60 80 -230 311 -601 565 -983 674 -83 23 -205
50 -285 62 -98 14 -401 11 -515 -6z m399 -464 c502 -48 947 -358 1160 -810 94
-201 135 -385 135 -611 0 -244 -41 -416 -156 -650 -148 -302 -445 -568 -766
-685 -91 -33 -214 -65 -287 -75 -27 -4 -61 -8 -75 -10 -21 -3 -165 -5 -245 -4
-56 1 -261 44 -345 71 -330 110 -611 339 -787 643 -76 131 -153 343 -168 465
-4 30 -10 74 -15 98 -9 49 -6 274 5 342 56 361 230 674 500 896 102 85 96 80
150 115 179 113 431 198 642 215 43 4 79 7 80 8 3 3 107 -2 172 -8z m-368
-4337 c0 -255 0 -504 0 -554 l-1 -90 -250 0 c-137 0 -250 1 -250 2 0 2 21 49
46 105 53 118 178 398 301 673 47 105 98 218 114 253 16 35 29 68 29 74 0 6 2
9 5 6 3 -3 6 -214 6 -469z m658 76 c10 -22 31 -67 46 -100 15 -33 45 -100 67
-150 22 -49 48 -108 58 -130 11 -22 37 -80 59 -130 21 -49 50 -116 65 -147 14
-31 26 -58 26 -60 0 -2 -113 -3 -250 -3 l-250 0 0 45 c-1 67 -1 913 0 1000 l0
75 81 -180 c44 -99 88 -198 98 -220z"/>
<path d="M3338 6034 c-294 -51 -556 -246 -690 -516 -39 -78 -75 -184 -84 -245
-3 -27 -8 -57 -10 -68 -4 -16 -5 -130 -2 -202 1 -37 29 -161 50 -223 81 -236
273 -446 505 -552 65 -29 145 -56 188 -64 193 -33 343 -25 500 27 304 101 527
333 621 646 33 111 42 326 19 436 -14 66 -34 117 -35 89 0 -18 -68 -112 -103
-141 -61 -52 -114 -82 -181 -103 -246 -75 -501 55 -592 303 -19 53 -27 187
-13 249 18 85 75 184 140 244 33 31 76 64 96 75 l36 18 -34 8 c-19 4 -41 9
-49 11 -85 21 -261 25 -362 8z"/>
</g>
</svg>
