<?xml version="1.0" encoding="UTF-8" standalone="no"?>
<svg
   xmlns:dc="http://purl.org/dc/elements/1.1/"
   xmlns:cc="http://creativecommons.org/ns#"
   xmlns:rdf="http://www.w3.org/1999/02/22-rdf-syntax-ns#"
   xmlns:svg="http://www.w3.org/2000/svg"
   xmlns="http://www.w3.org/2000/svg"
   xmlns:sodipodi="http://sodipodi.sourceforge.net/DTD/sodipodi-0.dtd"
   xmlns:inkscape="http://www.inkscape.org/namespaces/inkscape"
   width="5000"
   height="5000"
   viewBox="0 0 1322.9166 1322.9167"
   version="1.1"
   id="svg8"
   inkscape:version="1.0.2 (e86c870, 2021-01-15)"
   sodipodi:docname="Droniu 2.svg"
   enable-background="new">
  <defs
     id="defs2">
    <filter
       inkscape:collect="always"
       style="color-interpolation-filters:sRGB"
       id="filter7893">
      <feBlend
         inkscape:collect="always"
         mode="multiply"
         in2="BackgroundImage"
         id="feBlend7895" />
    </filter>
  </defs>
  <sodipodi:namedview
     id="base"
     pagecolor="#ffffff"
     bordercolor="#666666"
     borderopacity="1.0"
     inkscape:pageopacity="0.0"
     inkscape:pageshadow="2"
     inkscape:zoom="0.11313708"
     inkscape:cx="1345.6967"
     inkscape:cy="3094.0003"
     inkscape:document-units="mm"
     inkscape:current-layer="layer1"
     showgrid="false"
     units="px"
     borderlayer="true"
     inkscape:window-width="2560"
     inkscape:window-height="1017"
     inkscape:window-x="-8"
     inkscape:window-y="-8"
     inkscape:window-maximized="1"
     inkscape:snap-page="true"
     inkscape:snap-nodes="true"
     inkscape:object-paths="true"
     inkscape:snap-intersection-paths="true"
     inkscape:snap-midpoints="true"
     inkscape:snap-smooth-nodes="true"
     showguides="false"
     inkscape:guide-bbox="true"
     inkscape:pagecheckerboard="true"
     inkscape:document-rotation="0">
    <sodipodi:guide
       position="1978.5592,868.60405"
       orientation="1,0"
       id="guide7897"
       inkscape:locked="false" />
    <sodipodi:guide
       position="1619.3273,370.41667"
       orientation="1,0"
       id="guide7814"
       inkscape:locked="false" />
    <sodipodi:guide
       position="1689.5534,370.41669"
       orientation="1,0"
       id="guide7816"
       inkscape:locked="false" />
    <sodipodi:guide
       position="1513.4936,264.58335"
       orientation="1,0"
       id="guide7905"
       inkscape:locked="false" />
    <sodipodi:guide
       position="1407.6606,370.41669"
       orientation="1,0"
       id="guide7907"
       inkscape:locked="false" />
    <sodipodi:guide
       position="1607.5122,87.320012"
       orientation="0,1"
       id="guide7921"
       inkscape:locked="false" />
    <sodipodi:guide
       position="552.19148,905.44957"
       orientation="0,1"
       id="guide7980"
       inkscape:locked="false" />
    <sodipodi:guide
       position="652.41322,1833.2839"
       orientation="1,0"
       id="guide8783"
       inkscape:locked="false" />
    <sodipodi:guide
       position="819.20891,1864.8998"
       orientation="1,0"
       id="guide8785"
       inkscape:locked="false" />
    <sodipodi:guide
       position="16.280142,2608.1173"
       orientation="0,1"
       id="guide8040"
       inkscape:locked="false" />
    <sodipodi:guide
       position="12.451952,2544.7052"
       orientation="0,1"
       id="guide8042"
       inkscape:locked="false" />
    <sodipodi:guide
       position="-665.62149,2472.1497"
       orientation="1,0"
       id="guide8080"
       inkscape:locked="false" />
    <sodipodi:guide
       position="367.92582,585.80405"
       orientation="1,0"
       id="guide8109"
       inkscape:locked="false" />
  </sodipodi:namedview>
  <metadata
     id="metadata5">
    <rdf:RDF>
      <cc:Work
         rdf:about="">
        <dc:format>image/svg+xml</dc:format>
        <dc:type
           rdf:resource="http://purl.org/dc/dcmitype/StillImage" />
        <dc:title />
      </cc:Work>
    </rdf:RDF>
  </metadata>
  <g
     inkscape:label="Layer 1"
     inkscape:groupmode="layer"
     id="layer1"
     transform="translate(0,1025.9167)"
     style="filter:url(#filter7893);opacity:1">
    <g
       id="g8048"
       transform="matrix(6.1602843,0,0,6.1602843,231.31734,13676.896)"
       style="fill:#e2e2e2;fill-opacity:1"
       inkscape:export-xdpi="96"
       inkscape:export-ydpi="96">
      <path
         transform="matrix(0.26458333,0,0,0.26458333,0,-1025.9167)"
         id="path7984"
         d="m 322.23828,-4858.9531 c -29.56192,0 -53.72265,24.1607 -53.72266,53.7226 0,29.712 24.16074,53.7207 53.72266,53.7207 29.71198,0 53.7207,-24.0087 53.7207,-53.7207 0,-29.5619 -24.00872,-53.7226 -53.7207,-53.7226 z m 76.11524,1.3515 v 104.7422 h 25.50976 v -62.125 l 41.11719,62.4258 h 27.91211 v -104.5937 h -25.51172 v 61.6757 l -40.9668,-62.125 z m 178.49023,0 v 59.8731 c 0,25.5103 20.85884,46.3691 46.36914,46.3691 25.66035,0 46.51758,-20.8588 46.51758,-46.3691 v -59.8731 h -25.66016 v 59.8731 c 0,11.4047 -9.30276,20.709 -20.85742,20.709 -11.40461,0 -20.85937,-9.3043 -20.85937,-20.709 v -59.8731 z m -537.521484,0.1504 v 104.5918 h 44.417968 c 28.811616,0 52.220706,-23.4093 52.220706,-52.2207 0,-28.8117 -23.40909,-52.3711 -52.220706,-52.3711 z m 117.820314,0 v 104.8926 h 25.51172 v -39.916 h 25.66015 l 15.60547,39.916 h 28.06055 l -18.00586,-44.7187 c 9.30375,-5.7026 15.60547,-16.0569 15.60547,-27.7618 0,-17.8571 -14.7053,-32.4121 -32.5625,-32.4121 z m 367.05078,0 v 104.5918 h 25.50976 v -104.5918 z m -201.95508,24.0098 c 15.60629,0 28.21094,12.6045 28.21094,28.2109 0,15.6061 -12.60465,28.211 -28.21094,28.211 -15.45623,0 -28.21094,-12.6049 -28.21094,-28.211 0,-15.6064 12.75471,-28.2109 28.21094,-28.2109 z m -139.58398,1.5 h 34.36328 c 3.75151,0 6.90234,3.1508 6.90234,6.9023 0,3.9016 -3.15083,7.0528 -6.90234,7.0528 H 182.6543 Z m -117.822269,0.1504 h 18.908203 c 14.70593,0 26.710936,12.0048 26.710936,26.7109 0,14.7058 -12.005006,26.711 -26.710936,26.711 H 64.832031 Z m 111.380859,115.2949 c -8.98649,0 -18.11133,4.5619 -18.11133,18.5254 v 63.7344 c 0,13.9638 9.12484,18.5273 18.11133,18.5273 9.12466,0 18.11133,-4.5635 18.11133,-18.5273 v -63.7344 c 0,-13.9635 -8.98667,-18.5254 -18.11133,-18.5254 z m 116.65039,0 c -8.98649,0 -18.11133,4.5619 -18.11133,18.5254 v 63.7344 c 0,13.9638 9.12484,18.5273 18.11133,18.5273 9.12467,0 18.11133,-4.5635 18.11133,-18.5273 v -63.7344 c 0,-13.9635 -8.98666,-18.5254 -18.11133,-18.5254 z m 58.87891,0.5508 c -9.53956,0 -18.66406,4.4248 -18.66407,18.3887 v 62.9043 c 0,13.6871 9.12451,18.3886 18.66407,18.3886 8.43343,0 18.25,-4.0097 18.25,-15.623 v -40.3711 c 0,-0.6913 -0.69108,-1.1055 -1.24414,-1.1055 v 0 h -16.45313 c -0.82949,0 -1.38086,0.5532 -1.38086,1.3828 v 8.8476 c 0,0.8296 0.55137,1.5215 1.38086,1.5215 l 4.70117,-0.1406 c 0.8295,0 1.38282,0.6919 1.38282,1.5215 l 0.13867,25.0234 c 0,3.1797 -0.96881,6.6367 -6.77539,6.6367 -5.80668,0 -6.63477,-3.4566 -6.63477,-6.498 v -62.2148 c 0,-3.1798 0.82809,-6.6368 6.63477,-6.6368 5.80658,0 6.77539,3.457 6.77539,6.6368 v 4.0097 c 0,0.8296 0.69044,1.5212 1.6582,1.3828 l 8.4336,-1.1074 c 0.69132,0 1.38281,-0.6896 1.38281,-1.3809 v -7.8808 c 0,-10.0925 -9.81657,-13.6875 -18.25,-13.6875 z m 113.75781,1.1074 c -0.82949,0 -1.24505,0.6919 -1.52148,1.5215 l -12.30469,94.0117 c -0.13833,1.2442 0.69199,1.5215 1.52148,1.5215 h 8.98633 c 0.82949,0 1.38323,-0.6919 1.52148,-1.5215 l 1.51954,-10.3691 c 0.13833,-0.5534 0.41569,-0.9668 0.96875,-0.9668 h 12.16601 c 0.69124,0 0.96722,0.4134 1.10547,0.9668 0.96779,7.0507 1.38323,9.5399 1.52149,10.3691 0.13833,0.8296 0.55331,1.5215 1.38281,1.5215 h 9.125 c 0.82949,0 1.51911,-0.2765 1.38086,-1.5215 -0.27629,-2.2118 -12.16644,-93.5971 -12.30469,-94.0117 -0.13833,-0.8296 -0.55137,-1.5215 -1.38086,-1.5215 z m -424.65625,0.1387 c -0.829497,0 -1.521484,0.6919 -1.521484,1.5215 v 93.873 c 0,0.8296 0.691987,1.5215 1.521484,1.5215 h 8.986328 c 0.829497,0 1.382813,-0.6919 1.382813,-1.5215 v -40.5078 c 0,-0.8296 0.690034,-1.3828 1.519531,-1.3828 h 9.263672 c 7.3274,0 13.548828,-6.6355 13.548828,-13.9629 v -25.1621 c 0,-7.8803 -6.083161,-14.3789 -13.548828,-14.3789 z m 174.33984,0 c -0.82949,0 -1.52148,0.6919 -1.52148,1.5215 v 8.9863 c 0,0.8292 0.69199,1.5195 1.52148,1.5195 h 11.75 c 0.8295,0 1.52149,0.6919 1.52149,1.5215 v 81.8457 c 0,0.8296 0.69199,1.5215 1.52148,1.5215 h 8.98633 c 0.69133,0 1.38281,-0.6919 1.38281,-1.5215 v -81.8457 c 0,-0.8296 0.69004,-1.5215 1.51953,-1.5215 h 11.89063 c 0.8295,0 1.52148,-0.6903 1.52148,-1.5195 v -8.9863 c 0,-0.8296 -0.69198,-1.5215 -1.52148,-1.5215 z m 179.9336,0 c -0.82961,0 -1.51953,0.6919 -1.51953,1.5215 v 93.873 c 0,0.8296 0.68992,1.5215 1.51953,1.5215 h 8.98633 c 0.8296,0 1.38281,-0.6919 1.38281,-1.5215 v -45.3476 c 0,-0.8297 0.69199,-1.3829 1.52148,-1.3829 h 2.62696 c 0.69135,0 1.24455,0.4158 1.38281,0.9688 l 9.26172,45.7617 c 0.27666,0.8296 0.83066,1.5215 1.66015,1.5215 h 9.125 c 0.8295,0 1.79597,-0.2765 1.51953,-1.5215 l -9.53906,-46.8672 c -0.27666,-1.1059 -2.5e-4,-1.7983 0.55274,-2.2129 3.73277,-2.4888 6.22265,-6.4986 6.22265,-11.1992 v -21.1523 c 0,-7.4654 -6.085,-13.9629 -13.55078,-13.9629 z m 119.35156,0 c -0.82953,0 -1.51953,0.6919 -1.51953,1.5215 v 93.873 c 0,0.8296 0.69,1.5215 1.51953,1.5215 h 8.98633 c 0.82949,0 1.38281,-0.6919 1.38281,-1.5215 v -40.5078 c 0,-0.8296 0.69199,-1.3828 1.52149,-1.3828 h 9.26367 c 7.32737,0 13.54883,-6.6355 13.54883,-13.9629 v -25.1621 c 0,-7.8803 -6.08317,-14.3789 -13.54883,-14.3789 z m -415.425781,0.1387 c -1.10603,0 -1.935547,0.8296 -1.935547,1.9355 v 92.7676 c 0,1.1059 0.829517,2.0742 1.935547,2.0742 h 8.019531 c 1.10603,0 2.07422,-0.9683 2.07422,-2.0742 l -0.13867,-47.1446 c 0,-1.1062 0.69135,-1.9355 1.93554,-1.9355 h 9.95313 c 1.24429,0 1.93555,0.8293 1.93555,1.9355 l -0.13672,47.1446 c 0,1.1059 0.96614,2.0742 2.07226,2.0742 h 8.01953 c 1.10594,0 1.93555,-0.9683 1.93555,-2.0742 v -92.7676 c 0,-1.1059 -0.82961,-1.9355 -1.93555,-1.9355 h -8.01953 c -1.10612,0 -1.93554,0.8296 -1.93554,1.9355 v 29.8613 c 0,1.1059 -0.82952,1.9356 -1.93555,1.9356 h -9.95313 c -1.10603,0 -1.93554,-0.8297 -1.93554,-1.9356 v -29.8613 c 0,-1.1059 -0.82952,-1.9355 -1.93555,-1.9355 z m 473.626951,0 c -1.106,0 -1.93554,0.8296 -1.93554,1.9355 v 92.7676 c 0,1.1059 0.82954,2.0742 1.93554,2.0742 h 8.01953 c 1.10604,0 2.07227,-0.9683 2.07227,-2.0742 l -0.13672,-47.1446 c 0,-1.1062 0.69136,-1.9355 1.93555,-1.9355 h 9.95312 c 1.24418,0 1.93555,0.8293 1.93555,1.9355 l -0.13867,47.1446 c 0,1.1059 0.96821,2.0742 2.07422,2.0742 h 8.01953 c 1.10596,0 1.93554,-0.9683 1.93554,-2.0742 v -92.7676 c 0,-1.1059 -0.82958,-1.9355 -1.93554,-1.9355 h -8.01953 c -1.10601,0 -1.93555,0.8296 -1.93555,1.9355 v 29.8613 c 0,1.1059 -0.82962,1.9356 -1.93555,1.9356 h -9.95508 c -1.10592,0 -1.93554,-0.8297 -1.93554,-1.9356 v -29.8613 c 0,-1.1059 -0.82951,-1.9355 -1.93555,-1.9355 z m 57.81446,0 c -0.8295,0 -1.65974,0.5515 -1.52149,1.5195 l 14.51758,69.957 v 23.3652 c 0,1.1059 0.8295,1.9356 1.93555,1.9356 h 7.8789 c 1.10604,0 1.93555,-0.8297 1.93555,-1.9356 v -23.3652 l 14.37891,-69.2656 c 0.41468,-1.5209 -0.27693,-2.2109 -1.38282,-2.2109 h -8.29492 c -1.10604,0 -1.93638,0.8283 -2.21289,2.2109 l -8.29492,49.9101 -8.57031,-49.9101 c -0.13834,-1.3826 -1.24553,-2.2109 -2.35157,-2.2109 z m -454.27149,10.3691 c 5.25361,0 6.2207,3.3183 6.2207,6.498 v 63.043 c 0,3.3181 -0.96709,6.6367 -6.2207,6.6367 -5.25361,0 -6.2207,-3.3186 -6.2207,-6.6367 v -63.043 c 0,-3.1797 0.96709,-6.498 6.2207,-6.498 z m 116.65039,0 c 5.25361,0 6.22266,3.3183 6.22266,6.498 v 63.043 c 0,3.3181 -0.96905,6.6367 -6.22266,6.6367 -5.25361,0 -6.2207,-3.3186 -6.2207,-6.6367 v -63.043 c 0,-3.1797 0.96709,-6.498 6.2207,-6.498 z m -240.130858,1.5195 h 5.253906 c 3.041556,0 5.529297,2.9043 5.529297,6.084 v 17.834 c 0,3.0418 -2.487741,5.5312 -5.529297,5.5312 h -5.253906 c -0.829497,0 -1.519531,-0.5528 -1.519531,-1.2441 v -26.8223 c 0,-0.8292 0.690034,-1.3828 1.519531,-1.3828 z m 354.275388,0 h 5.25391 c 3.04146,0 5.5293,2.9043 5.5293,6.084 v 12.9961 c 0,3.0418 -2.48784,5.5293 -5.5293,5.5293 h -5.25391 c -0.82949,0 -1.52148,-0.5529 -1.52148,-1.2441 v -21.9825 c 0,-0.8292 0.69199,-1.3828 1.52148,-1.3828 z m 119.35157,0 h 5.2539 c 3.04154,0 5.5293,2.9043 5.5293,6.084 v 17.834 c 0,3.0418 -2.48776,5.5312 -5.5293,5.5312 h -5.2539 c -0.8295,0 -1.52149,-0.5528 -1.52149,-1.2441 v -26.8223 c 0,-0.8292 0.69199,-1.3828 1.52149,-1.3828 z m -54.08594,1.3828 5.2539,58.6192 c 0.13833,0.5529 -0.4137,1.1074 -0.96679,1.1074 h -8.4336 c -0.55298,0 -1.10742,-0.4161 -1.10742,-1.1074 z"
         style="font-style:normal;font-variant:normal;font-weight:normal;font-stretch:normal;font-size:medium;line-height:1.25;font-family:'Bourbon Grotesque';-inkscape-font-specification:'Bourbon Grotesque, Normal';font-variant-ligatures:normal;font-variant-caps:normal;font-variant-numeric:normal;font-feature-settings:normal;text-align:start;letter-spacing:0px;word-spacing:0px;writing-mode:lr-tb;text-anchor:start;fill:#e2e2e2;fill-opacity:1;stroke:none;stroke-width:3.751513"
         inkscape:connector-curvature="0" />
      <path
         inkscape:connector-curvature="0"
         id="path8024"
         d="m -20.294761,-2311.1174 a 17.255278,17.255278 0 0 0 -17.255155,17.2557 17.255278,17.255278 0 0 0 12.793607,16.661 l -6.98836,15.5779 v 5e-4 5e-4 l -3.686618,8.2176 -1.997934,4.4543 c -0.309309,0.6895 -0.0037,1.2447 0.685835,1.2447 h 2.238804 c 0.689506,0 1.493855,-0.5552 1.803164,-1.2447 l 3.749814,-8.359 h 6.499884 v 3.9047 4.5631 c 0,0.6291 0.506357,1.1359 1.13546,1.1359 h 2.042998 c 0.629103,0 1.13546,-0.5068 1.13546,-1.1359 v -4.5631 -3.9047 h 6.499885 l 1.7513632,3.9047 1.9984507,4.4543 c 0.3093086,0.6895 1.1136583,1.2447 1.8031638,1.2447 h 2.2388031 c 0.6895055,0 0.995143,-0.5552 0.6858344,-1.2447 l -5.6845504,-12.6724 -6.9940578,-15.5908 a 17.255278,17.255278 0 0 0 12.7993025,-16.6486 17.255278,17.255278 0 0 0 -17.2551535,-17.2557 z m 0,4.3139 a 12.941458,12.941458 0 0 1 1.102826,0.055 12.941462,12.941462 0 0 1 0.64284,0.078 12.941458,12.941458 0 0 1 0.638696,0.096 12.941462,12.941462 0 0 1 0.62989,0.1415 12.941458,12.941458 0 0 1 0.6273,0.16 12.941462,12.941462 0 0 1 0.613832,0.2041 12.941458,12.941458 0 0 1 0.606062,0.2212 12.941462,12.941462 0 0 1 0.592594,0.2652 12.941458,12.941458 0 0 1 0.579126,0.2802 12.941462,12.941462 0 0 1 0.563586,0.3227 12.941458,12.941458 0 0 1 0.549081,0.3368 12.941462,12.941462 0 0 1 0.527326,0.377 12.941458,12.941458 0 0 1 0.512822,0.3901 12.941462,12.941462 0 0 1 0.486921,0.4279 12.941458,12.941458 0 0 1 0.472418,0.4398 12.941462,12.941462 0 0 1 0.440301,0.4724 12.941458,12.941458 0 0 1 0.427351,0.4869 12.941462,12.941462 0 0 1 0.3900553,0.5128 12.941458,12.941458 0 0 1 0.3771052,0.5279 12.941462,12.941462 0 0 1 0.3367013,0.5485 12.941458,12.941458 0 0 1 0.323233,0.5636 12.941462,12.941462 0 0 1 0.2797208,0.5791 12.941458,12.941458 0 0 1 0.2652168,0.5927 12.941462,12.941462 0 0 1 0.2211867,0.606 12.941458,12.941458 0 0 1 0.2040928,0.6138 12.941462,12.941462 0 0 1 0.1600624,0.6273 12.941458,12.941458 0 0 1 0.1414144,0.6299 12.941462,12.941462 0 0 1 0.096349,0.6387 12.941458,12.941458 0 0 1 0.078218,0.6434 12.941462,12.941462 0 0 1 0.055426,1.1023 12.941458,12.941458 0 0 1 -0.055426,1.1028 12.941462,12.941462 0 0 1 -0.078218,0.6429 12.941458,12.941458 0 0 1 -0.096349,0.6387 12.941462,12.941462 0 0 1 -0.1414144,0.6298 12.941458,12.941458 0 0 1 -0.1600624,0.6273 12.941462,12.941462 0 0 1 -0.2040928,0.6139 12.941458,12.941458 0 0 1 -0.2211867,0.606 12.941462,12.941462 0 0 1 -0.2652168,0.5926 12.941458,12.941458 0 0 1 -0.2797208,0.5792 12.941462,12.941462 0 0 1 -0.323233,0.5635 12.941458,12.941458 0 0 1 -0.3367013,0.5491 12.941462,12.941462 0 0 1 -0.3771052,0.5273 12.941458,12.941458 0 0 1 -0.3900553,0.5129 12.941462,12.941462 0 0 1 -0.427351,0.4869 12.941458,12.941458 0 0 1 -0.440301,0.4724 12.941462,12.941462 0 0 1 -0.472418,0.4403 12.941458,12.941458 0 0 1 -0.486921,0.4273 12.941462,12.941462 0 0 1 -0.512822,0.3901 12.941458,12.941458 0 0 1 -0.527326,0.3771 12.941462,12.941462 0 0 1 -0.549081,0.3367 12.941458,12.941458 0 0 1 -0.563586,0.3233 12.941462,12.941462 0 0 1 -0.579126,0.2797 12.941458,12.941458 0 0 1 -0.592594,0.2652 12.941462,12.941462 0 0 1 -0.605026,0.2207 12.941458,12.941458 0 0 1 -0.615904,0.2051 12.941462,12.941462 0 0 1 -0.62471,0.159 12.941458,12.941458 0 0 1 -0.631444,0.1419 12.941462,12.941462 0 0 1 -0.638696,0.096 12.941458,12.941458 0 0 1 -0.64284,0.078 12.941462,12.941462 0 0 1 -1.102826,0.055 12.941458,12.941458 0 0 1 -1.102307,-0.055 12.941462,12.941462 0 0 1 -0.643358,-0.078 12.941458,12.941458 0 0 1 -0.638178,-0.096 12.941462,12.941462 0 0 1 -0.631963,-0.1419 12.941458,12.941458 0 0 1 -0.62471,-0.159 12.941462,12.941462 0 0 1 -0.615904,-0.2051 12.941458,12.941458 0 0 1 -0.605025,-0.2207 12.941462,12.941462 0 0 1 -0.592594,-0.2652 12.941458,12.941458 0 0 1 -0.579126,-0.2797 12.941462,12.941462 0 0 1 -0.562033,-0.3222 12.941458,12.941458 0 0 1 -0.55167,-0.3383 12.941462,12.941462 0 0 1 -0.524737,-0.375 12.941458,12.941458 0 0 1 -0.514375,-0.3917 12.941462,12.941462 0 0 1 -0.486922,-0.4273 12.941458,12.941458 0 0 1 -0.472417,-0.4403 12.941462,12.941462 0 0 1 -0.440303,-0.4724 12.941458,12.941458 0 0 1 -0.427349,-0.4869 12.941462,12.941462 0 0 1 -0.390057,-0.5129 12.941458,12.941458 0 0 1 -0.377104,-0.5273 12.941462,12.941462 0 0 1 -0.336701,-0.5491 12.941458,12.941458 0 0 1 -0.323233,-0.5635 12.941462,12.941462 0 0 1 -0.279721,-0.5792 12.941458,12.941458 0 0 1 -0.265217,-0.5926 12.941462,12.941462 0 0 1 -0.221188,-0.606 12.941458,12.941458 0 0 1 -0.204093,-0.6139 12.941462,12.941462 0 0 1 -0.160061,-0.6273 12.941458,12.941458 0 0 1 -0.141416,-0.6298 12.941462,12.941462 0 0 1 -0.09635,-0.6387 12.941458,12.941458 0 0 1 -0.07822,-0.6429 12.941462,12.941462 0 0 1 -0.05491,-1.1028 12.941458,12.941458 0 0 1 0.05491,-1.1023 12.941462,12.941462 0 0 1 0.07822,-0.6434 12.941458,12.941458 0 0 1 0.09635,-0.6387 12.941462,12.941462 0 0 1 0.141416,-0.6299 12.941458,12.941458 0 0 1 0.160061,-0.6273 12.941462,12.941462 0 0 1 0.204093,-0.6138 12.941458,12.941458 0 0 1 0.221188,-0.606 12.941462,12.941462 0 0 1 0.265217,-0.5927 12.941458,12.941458 0 0 1 0.279721,-0.5791 12.941462,12.941462 0 0 1 0.322713,-0.5625 12.941458,12.941458 0 0 1 0.337738,-0.5501 12.941462,12.941462 0 0 1 0.37607,-0.5268 12.941458,12.941458 0 0 1 0.390574,-0.5134 12.941462,12.941462 0 0 1 0.427349,-0.4869 12.941458,12.941458 0 0 1 0.440303,-0.4724 12.941462,12.941462 0 0 1 0.472417,-0.4398 12.941458,12.941458 0 0 1 0.486922,-0.4279 12.941462,12.941462 0 0 1 0.512821,-0.3901 12.941458,12.941458 0 0 1 0.527845,-0.377 12.941462,12.941462 0 0 1 0.548562,-0.3368 12.941458,12.941458 0 0 1 0.563587,-0.3227 12.941462,12.941462 0 0 1 0.579126,-0.2802 12.941458,12.941458 0 0 1 0.592594,-0.2652 12.941462,12.941462 0 0 1 0.606061,-0.2212 12.941458,12.941458 0 0 1 0.613832,-0.2041 12.941462,12.941462 0 0 1 0.627301,-0.16 12.941458,12.941458 0 0 1 0.62989,-0.1415 12.941462,12.941462 0 0 1 0.638696,-0.096 12.941458,12.941458 0 0 1 0.643358,-0.078 12.941462,12.941462 0 0 1 1.102307,-0.055 z m 0,4.314 a 8.6276314,8.6276314 0 0 0 -8.627836,8.6278 8.6276314,8.6276314 0 0 0 8.627836,8.6273 8.6276314,8.6276314 0 0 0 8.627836,-8.6273 8.6276314,8.6276314 0 0 0 -0.389537,-2.5335 4.3138174,4.3138174 0 0 1 -3.924381,2.5335 4.3138174,4.3138174 0 0 1 -4.313918,-4.3139 4.3138174,4.3138174 0 0 1 2.546496,-3.9296 8.6276314,8.6276314 0 0 0 -2.546496,-0.3843 z m -2.156959,30.6916 v 10.1751 h -4.564631 z m 4.313918,0 4.564631,10.1751 h -4.564631 z"
         style="opacity:1;fill:#e2e2e2;fill-opacity:1;fill-rule:nonzero;stroke:none;stroke-width:4.19914579;stroke-linecap:round;stroke-linejoin:miter;stroke-miterlimit:4;stroke-dasharray:none;stroke-dashoffset:0;stroke-opacity:1;paint-order:markers stroke fill" />
    </g>
  </g>
</svg>
