<?xml version="1.0" encoding="UTF-8" standalone="no"?>
<!-- Created with Inkscape (http://www.inkscape.org/) -->

<svg
   xmlns:dc="http://purl.org/dc/elements/1.1/"
   xmlns:cc="http://creativecommons.org/ns#"
   xmlns:rdf="http://www.w3.org/1999/02/22-rdf-syntax-ns#"
   xmlns:svg="http://www.w3.org/2000/svg"
   xmlns="http://www.w3.org/2000/svg"
   xmlns:sodipodi="http://sodipodi.sourceforge.net/DTD/sodipodi-0.dtd"
   xmlns:inkscape="http://www.inkscape.org/namespaces/inkscape"
   width="5000"
   height="5000"
   viewBox="0 0 1322.9166 1322.9167"
   version="1.1"
   id="svg8"
   inkscape:version="0.92.1 r15371"
   sodipodi:docname="Droniu 3.svg"
   enable-background="new">
  <defs
     id="defs2">
    <filter
       inkscape:collect="always"
       style="color-interpolation-filters:sRGB"
       id="filter7893">
      <feBlend
         inkscape:collect="always"
         mode="multiply"
         in2="BackgroundImage"
         id="feBlend7895" />
    </filter>
  </defs>
  <sodipodi:namedview
     id="base"
     pagecolor="#ffffff"
     bordercolor="#666666"
     borderopacity="1.0"
     inkscape:pageopacity="0.0"
     inkscape:pageshadow="2"
     inkscape:zoom="0.11313708"
     inkscape:cx="3081.6122"
     inkscape:cy="2912.8481"
     inkscape:document-units="mm"
     inkscape:current-layer="layer1"
     showgrid="false"
     units="px"
     borderlayer="true"
     inkscape:window-width="1920"
     inkscape:window-height="1027"
     inkscape:window-x="-8"
     inkscape:window-y="-8"
     inkscape:window-maximized="1"
     inkscape:snap-page="true"
     inkscape:snap-nodes="true"
     inkscape:object-paths="true"
     inkscape:snap-intersection-paths="true"
     inkscape:snap-midpoints="true"
     inkscape:snap-smooth-nodes="true"
     showguides="false"
     inkscape:guide-bbox="true"
     inkscape:pagecheckerboard="true">
    <sodipodi:guide
       position="1978.5592,868.60405"
       orientation="1,0"
       id="guide7897"
       inkscape:locked="false" />
    <sodipodi:guide
       position="1619.3273,370.41667"
       orientation="1,0"
       id="guide7814"
       inkscape:locked="false" />
    <sodipodi:guide
       position="1689.5534,370.41669"
       orientation="1,0"
       id="guide7816"
       inkscape:locked="false" />
    <sodipodi:guide
       position="1513.4936,264.58335"
       orientation="1,0"
       id="guide7905"
       inkscape:locked="false" />
    <sodipodi:guide
       position="1407.6606,370.41669"
       orientation="1,0"
       id="guide7907"
       inkscape:locked="false" />
    <sodipodi:guide
       position="1607.5122,87.320012"
       orientation="0,1"
       id="guide7921"
       inkscape:locked="false" />
    <sodipodi:guide
       position="552.19148,905.44957"
       orientation="0,1"
       id="guide7980"
       inkscape:locked="false" />
    <sodipodi:guide
       position="652.41322,1833.2839"
       orientation="1,0"
       id="guide8783"
       inkscape:locked="false" />
    <sodipodi:guide
       position="819.20891,1864.8998"
       orientation="1,0"
       id="guide8785"
       inkscape:locked="false" />
    <sodipodi:guide
       position="16.280142,2608.1173"
       orientation="0,1"
       id="guide8040"
       inkscape:locked="false" />
    <sodipodi:guide
       position="12.451952,2544.7052"
       orientation="0,1"
       id="guide8042"
       inkscape:locked="false" />
    <sodipodi:guide
       position="-665.62149,2472.1497"
       orientation="1,0"
       id="guide8080"
       inkscape:locked="false" />
    <sodipodi:guide
       position="367.92582,585.80405"
       orientation="1,0"
       id="guide8109"
       inkscape:locked="false" />
  </sodipodi:namedview>
  <metadata
     id="metadata5">
    <rdf:RDF>
      <cc:Work
         rdf:about="">
        <dc:format>image/svg+xml</dc:format>
        <dc:type
           rdf:resource="http://purl.org/dc/dcmitype/StillImage" />
        <dc:title></dc:title>
      </cc:Work>
    </rdf:RDF>
  </metadata>
  <g
     inkscape:label="Layer 1"
     inkscape:groupmode="layer"
     id="layer1"
     transform="translate(0,1025.9167)"
     style="filter:url(#filter7893);opacity:1">
    <path
       style="opacity:1;fill:#e2e2e2;fill-opacity:1;fill-rule:nonzero;stroke:none;stroke-width:87.60332489;stroke-linecap:round;stroke-linejoin:miter;stroke-miterlimit:4;stroke-dasharray:none;stroke-dashoffset:0;stroke-opacity:1;paint-order:markers stroke fill"
       d="m 661.45834,-1025.9162 a 359.9827,359.9827 0 0 0 -359.98012,359.99147 359.9827,359.9827 0 0 0 266.90249,347.58477 L 422.58831,6.6489646 v 0.01016 0.01016 L 345.67745,178.10634 303.99616,271.03273 c -6.45285,14.38449 -0.0772,25.96717 14.30802,25.96717 h 46.70633 c 14.38459,0 31.16506,-11.58268 37.61792,-25.96717 L 480.85772,96.645773 h 135.60176 v 81.460567 95.1962 c 0,13.12438 10.5637,23.69736 23.68818,23.69736 h 42.6214 c 13.12444,0 23.68814,-10.57298 23.68814,-23.69736 v -95.1962 -81.460567 h 135.60177 l 36.53726,81.460567 41.69202,92.92639 c 6.45286,14.38449 23.23334,25.96717 37.61792,25.96717 h 46.70633 c 14.3846,0 20.7608,-11.58268 14.308,-25.96717 L 900.32841,6.6588533 754.4171,-318.5992 a 359.9827,359.9827 0 0 0 267.0213,-347.32607 359.9827,359.9827 0 0 0 -359.98006,-359.99153 z m 0,89.99735 a 269.98701,269.98701 0 0 1 23.00735,1.14741 269.98709,269.98709 0 0 1 13.41105,1.62724 269.98701,269.98701 0 0 1 13.3246,2.00278 269.98709,269.98709 0 0 1 13.14087,2.95199 269.98701,269.98701 0 0 1 13.08685,3.33797 269.98709,269.98709 0 0 1 12.80588,4.25795 269.98701,269.98701 0 0 1 12.64376,4.61474 269.98709,269.98709 0 0 1 12.36281,5.53262 269.98701,269.98701 0 0 1 12.08183,5.84558 269.98709,269.98709 0 0 1 11.75763,6.73224 269.98701,269.98701 0 0 1 11.45504,7.02637 269.98709,269.98709 0 0 1 11.00114,7.86505 269.98701,269.98701 0 0 1 10.69859,8.13835 269.98709,269.98709 0 0 1 10.15822,8.92691 269.98701,269.98701 0 0 1 9.85568,9.17517 269.98709,269.98709 0 0 1 9.18564,9.8553 269.98701,269.98701 0 0 1 8.91549,10.15782 269.98709,269.98709 0 0 1 8.1374,10.69811 269.98701,269.98701 0 0 1 7.86722,11.01313 269.98709,269.98709 0 0 1 7.02433,11.44292 269.98701,269.98701 0 0 1 6.74336,11.75794 269.98709,269.98709 0 0 1 5.83558,12.08128 269.98701,269.98701 0 0 1 5.533,12.36502 269.98709,269.98709 0 0 1 4.61443,12.64247 269.98701,269.98701 0 0 1 4.25782,12.8052 269.98709,269.98709 0 0 1 3.33925,13.08685 269.98701,269.98701 0 0 1 2.9502,13.14108 269.98709,269.98709 0 0 1 2.01006,13.32466 269.98701,269.98701 0 0 1 1.63178,13.42274 269.98709,269.98709 0 0 1 1.15631,22.99637 269.98701,269.98701 0 0 1 -1.15631,23.00681 269.98709,269.98709 0 0 1 -1.63178,13.4123 269.98701,269.98701 0 0 1 -2.01006,13.32466 269.98709,269.98709 0 0 1 -2.9502,13.13901 269.98701,269.98701 0 0 1 -3.33925,13.08686 269.98709,269.98709 0 0 1 -4.25782,12.8073 269.98701,269.98701 0 0 1 -4.61443,12.64247 269.98709,269.98709 0 0 1 -5.533,12.36291 269.98701,269.98701 0 0 1 -5.83558,12.08338 269.98709,269.98709 0 0 1 -6.74336,11.75584 269.98701,269.98701 0 0 1 -7.02433,11.45542 269.98709,269.98709 0 0 1 -7.86722,11.00063 269.98701,269.98701 0 0 1 -8.1374,10.70021 269.98709,269.98709 0 0 1 -8.91549,10.15779 269.98701,269.98701 0 0 1 -9.18564,9.8553 269.98709,269.98709 0 0 1 -9.85568,9.1856 269.98701,269.98701 0 0 1 -10.15822,8.91441 269.98709,269.98709 0 0 1 -10.69859,8.13835 269.98701,269.98701 0 0 1 -11.00114,7.86712 269.98709,269.98709 0 0 1 -11.45504,7.0243 269.98701,269.98701 0 0 1 -11.75763,6.74474 269.98709,269.98709 0 0 1 -12.08183,5.83515 269.98701,269.98701 0 0 1 -12.36281,5.53266 269.98709,269.98709 0 0 1 -12.62216,4.60427 269.98701,269.98701 0 0 1 -12.84908,4.27885 269.98709,269.98709 0 0 1 -13.03284,3.31707 269.98701,269.98701 0 0 1 -13.17328,2.96036 269.98709,269.98709 0 0 1 -13.3246,2.00278 269.98701,269.98701 0 0 1 -13.41105,1.62724 269.98709,269.98709 0 0 1 -23.00735,1.1474 269.98701,269.98701 0 0 1 -22.99654,-1.1474 269.98709,269.98709 0 0 1 -13.42182,-1.62724 269.98701,269.98701 0 0 1 -13.31379,-2.00278 269.98709,269.98709 0 0 1 -13.18412,-2.96036 269.98701,269.98701 0 0 1 -13.03281,-3.31707 269.98709,269.98709 0 0 1 -12.84912,-4.27885 269.98701,269.98701 0 0 1 -12.62212,-4.60427 269.98709,269.98709 0 0 1 -12.36281,-5.53266 269.98701,269.98701 0 0 1 -12.08183,-5.83515 269.98709,269.98709 0 0 1 -11.72525,-6.72178 269.98701,269.98701 0 0 1 -11.50903,-7.05769 269.98709,269.98709 0 0 1 -10.94716,-7.8233 269.98701,269.98701 0 0 1 -10.73099,-8.17174 269.98709,269.98709 0 0 1 -10.15823,-8.91441 269.98701,269.98701 0 0 1 -9.85567,-9.1856 269.98709,269.98709 0 0 1 -9.18568,-9.8553 269.98701,269.98701 0 0 1 -8.91542,-10.15779 269.98709,269.98709 0 0 1 -8.13744,-10.70021 269.98701,269.98701 0 0 1 -7.86721,-11.00063 269.98709,269.98709 0 0 1 -7.02431,-11.45542 269.98701,269.98701 0 0 1 -6.74335,-11.75584 269.98709,269.98709 0 0 1 -5.83559,-12.08338 269.98701,269.98701 0 0 1 -5.53299,-12.36291 269.98709,269.98709 0 0 1 -4.61446,-12.64247 269.98701,269.98701 0 0 1 -4.25783,-12.8073 269.98709,269.98709 0 0 1 -3.33925,-13.08686 269.98701,269.98701 0 0 1 -2.95023,-13.13901 269.98709,269.98709 0 0 1 -2.01006,-13.32466 269.98701,269.98701 0 0 1 -1.63185,-13.4123 269.98709,269.98709 0 0 1 -1.14554,-23.00681 269.98701,269.98701 0 0 1 1.14554,-22.99637 269.98709,269.98709 0 0 1 1.63185,-13.42274 269.98701,269.98701 0 0 1 2.01006,-13.32466 269.98709,269.98709 0 0 1 2.95023,-13.14108 269.98701,269.98701 0 0 1 3.33925,-13.08685 269.98709,269.98709 0 0 1 4.25783,-12.8052 269.98701,269.98701 0 0 1 4.61446,-12.64247 269.98709,269.98709 0 0 1 5.53299,-12.36502 269.98701,269.98701 0 0 1 5.83559,-12.08128 269.98709,269.98709 0 0 1 6.73248,-11.73498 269.98701,269.98701 0 0 1 7.04598,-11.47631 269.98709,269.98709 0 0 1 7.84561,-10.99017 269.98701,269.98701 0 0 1 8.14824,-10.71064 269.98709,269.98709 0 0 1 8.91542,-10.15782 269.98701,269.98701 0 0 1 9.18568,-9.8553 269.98709,269.98709 0 0 1 9.85567,-9.17517 269.98701,269.98701 0 0 1 10.15823,-8.92691 269.98709,269.98709 0 0 1 10.69858,-8.13835 269.98701,269.98701 0 0 1 11.01198,-7.86505 269.98709,269.98709 0 0 1 11.44421,-7.02637 269.98701,269.98701 0 0 1 11.75766,-6.73224 269.98709,269.98709 0 0 1 12.08183,-5.84558 269.98701,269.98701 0 0 1 12.36281,-5.53262 269.98709,269.98709 0 0 1 12.64373,-4.61474 269.98701,269.98701 0 0 1 12.80587,-4.25795 269.98709,269.98709 0 0 1 13.08689,-3.33797 269.98701,269.98701 0 0 1 13.14087,-2.95199 269.98709,269.98709 0 0 1 13.3246,-2.00278 269.98701,269.98701 0 0 1 13.42182,-1.62724 269.98709,269.98709 0 0 1 22.99654,-1.14741 z m 0,89.99942 a 179.99119,179.99119 0 0 0 -179.99544,179.9947 179.99119,179.99119 0 0 0 179.99544,179.98427 179.99119,179.99119 0 0 0 179.99548,-179.98427 179.99119,179.99119 0 0 0 -8.12659,-52.85433 89.99563,89.99563 0 0 1 -81.87117,52.85433 89.99563,89.99563 0 0 1 -89.99772,-89.99735 89.99563,89.99563 0 0 1 53.12546,-81.98001 179.99119,179.99119 0 0 0 -53.12546,-8.01734 z M 616.45948,-205.6258 V 6.6489646 h -95.22816 z m 89.99772,0 95.22817,212.2747646 H 706.4572 Z"
       id="path8024"
       inkscape:connector-curvature="0" />
  </g>
</svg>
