<svg xmlns="http://www.w3.org/2000/svg" enable-background="new" viewBox="0 0 1322.9 1322.9">
  <defs>
    <filter id="a" color-interpolation-filters="sRGB">
      <feBlend in2="BackgroundImage" mode="multiply"/>
    </filter>
  </defs>
  <g filter="url(#a)" transform="translate(0 1026)">
    <path fill="#e2e2e2" d="M661.5-1026a360 360 0 0 0-360 360 360 360 0 0 0 266.9 347.7L422.6 6.7l-77 171.4-41.6 93c-6.5 14.3 0 25.9 14.3 25.9H365c14.4 0 31.2-11.6 37.6-26L481 96.6h135.6v176.7A23.6 23.6 0 0 0 640 297h42.7a23.6 23.6 0 0 0 23.7-23.7V96.6H842l36.5 81.5 41.7 93a45.6 45.6 0 0 0 37.6 25.9h46.7c14.4 0 20.8-11.6 14.3-26L900.3 6.7 754.4-318.6a360 360 0 0 0 267-347.3 360 360 0 0 0-360-360zm0 90a270 270 0 0 1 23 1.2 270 270 0 0 1 13.4 1.7 270 270 0 0 1 13.3 2 270 270 0 0 1 13.1 3 270 270 0 0 1 13.1 3.2 270 270 0 0 1 12.8 4.3A270 270 0 0 1 763-916a270 270 0 0 1 12.3 5.6 270 270 0 0 1 12.1 5.8 270 270 0 0 1 11.8 6.7 270 270 0 0 1 11.4 7 270 270 0 0 1 11 8 270 270 0 0 1 10.7 8 270 270 0 0 1 10.2 9 270 270 0 0 1 9.8 9.2 270 270 0 0 1 9.2 9.8 270 270 0 0 1 9 10.2 270 270 0 0 1 8 10.7 270 270 0 0 1 8 11 270 270 0 0 1 7 11.4 270 270 0 0 1 6.7 11.8 270 270 0 0 1 5.9 12 270 270 0 0 1 5.5 12.4 270 270 0 0 1 4.6 12.7 270 270 0 0 1 4.3 12.8 270 270 0 0 1 3.3 13 270 270 0 0 1 3 13.2 270 270 0 0 1 2 13.3 270 270 0 0 1 1.6 13.5 270 270 0 0 1 1.2 23 270 270 0 0 1-1.2 23 270 270 0 0 1-1.6 13.4 270 270 0 0 1-2 13.3 270 270 0 0 1-3 13.1 270 270 0 0 1-3.3 13.1 270 270 0 0 1-4.3 12.8 270 270 0 0 1-4.6 12.7 270 270 0 0 1-5.5 12.3A270 270 0 0 1 900-540a270 270 0 0 1-6.7 11.8 270 270 0 0 1-7 11.4 270 270 0 0 1-8 11 270 270 0 0 1-8 10.7 270 270 0 0 1-9 10.2 270 270 0 0 1-9.2 9.8 270 270 0 0 1-9.8 9.2 270 270 0 0 1-10.2 9 270 270 0 0 1-10.7 8 270 270 0 0 1-11 8 270 270 0 0 1-11.4 7 270 270 0 0 1-11.8 6.7 270 270 0 0 1-12 5.9 270 270 0 0 1-12.4 5.5 270 270 0 0 1-12.6 4.6 270 270 0 0 1-12.9 4.3 270 270 0 0 1-13 3.3 270 270 0 0 1-13.2 3 270 270 0 0 1-13.3 2 270 270 0 0 1-13.4 1.6 270 270 0 0 1-23 1.1 270 270 0 0 1-23-1.1 270 270 0 0 1-13.5-1.6 270 270 0 0 1-13.3-2 270 270 0 0 1-13.2-3 270 270 0 0 1-13-3.3 270 270 0 0 1-12.8-4.3A270 270 0 0 1 560-416a270 270 0 0 1-12.3-5.5 270 270 0 0 1-12.1-5.9 270 270 0 0 1-11.7-6.7 270 270 0 0 1-11.5-7 270 270 0 0 1-11-7.9 270 270 0 0 1-10.7-8.2 270 270 0 0 1-10.2-8.9 270 270 0 0 1-9.8-9.2 270 270 0 0 1-9.2-9.8 270 270 0 0 1-9-10.2 270 270 0 0 1-8-10.7 270 270 0 0 1-8-11 270 270 0 0 1-7-11.4 270 270 0 0 1-6.7-11.8 270 270 0 0 1-5.8-12 270 270 0 0 1-5.6-12.4 270 270 0 0 1-4.6-12.7 270 270 0 0 1-4.2-12.8 270 270 0 0 1-3.4-13 270 270 0 0 1-3-13.2 270 270 0 0 1-2-13.3 270 270 0 0 1-1.6-13.4 270 270 0 0 1-1.1-23 270 270 0 0 1 1.1-23 270 270 0 0 1 1.7-13.5 270 270 0 0 1 2-13.3 270 270 0 0 1 3-13.1 270 270 0 0 1 3.3-13.1 270 270 0 0 1 4.2-12.8 270 270 0 0 1 4.6-12.7 270 270 0 0 1 5.6-12.3 270 270 0 0 1 5.8-12.1 270 270 0 0 1 6.7-11.7 270 270 0 0 1 7-11.5 270 270 0 0 1 8-11 270 270 0 0 1 8-10.7 270 270 0 0 1 9-10.2 270 270 0 0 1 9.2-9.8 270 270 0 0 1 9.8-9.2 270 270 0 0 1 10.2-9 270 270 0 0 1 10.7-8 270 270 0 0 1 11-8 270 270 0 0 1 11.4-7 270 270 0 0 1 11.8-6.7 270 270 0 0 1 12-5.8A270 270 0 0 1 560-916a270 270 0 0 1 12.7-4.6 270 270 0 0 1 12.8-4.3 270 270 0 0 1 13-3.3 270 270 0 0 1 13.2-3 270 270 0 0 1 13.3-2 270 270 0 0 1 13.5-1.6 270 270 0 0 1 23-1.1zm0 90a180 180 0 0 0-180 180 180 180 0 0 0 180 180 180 180 0 0 0 180-180 180 180 0 0 0-8.2-52.8 90 90 0 0 1-81.8 52.9 90 90 0 0 1-90-90 90 90 0 0 1 53-82 180 180 0 0 0-53-8zm-45 640.4V6.6h-95.3zm90 0L801.7 6.6h-95.2Z" paint-order="markers stroke fill"/>
  </g>
</svg>
